<?xml version="1.0" encoding="UTF-8"?>
<svg xmlns="http://www.w3.org/2000/svg" viewBox="0 0 500 372.06">
  <defs>
    <style>
      .cls-1 {
        fill: #f0f0f0;
      }

      .cls-2, .cls-3, .cls-4, .cls-5, .cls-6, .cls-7, .cls-8 {
        fill: #fff;
      }

      .cls-3, .cls-9 {
        opacity: .4;
      }

      .cls-10, .cls-11, .cls-8 {
        opacity: .6;
      }

      .cls-12 {
        fill: #f5f5f5;
      }

      .cls-4 {
        opacity: .3;
      }

      .cls-13, .cls-7 {
        opacity: .2;
      }

      .cls-5 {
        opacity: .5;
      }

      .cls-14 {
        fill: #e0e0e0;
      }

      .cls-15 {
        opacity: .8;
      }

      .cls-6 {
        opacity: .7;
      }

      .cls-16 {
        fill: #e6e6e6;
      }

      .cls-11 {
        fill: #fafafa;
      }

      .cls-17 {
        fill: #b55b52;
      }

      .cls-18 {
        opacity: .1;
      }

      .cls-19 {
        fill: #ebebeb;
      }

      .cls-20 {
        fill: #407bff;
      }

      .cls-21 {
        fill: #a02724;
      }

      .cls-22 {
        fill: #263238;
      }
    </style>
  </defs>
  <g id="Background_Complete" data-name="Background Complete">
    <rect class="cls-19" x="416.78" y="343.54" width="33.12" height=".25"/>
    <rect class="cls-19" x="322.53" y="346.26" width="8.69" height=".25"/>
    <rect class="cls-19" x="396.59" y="334.26" width="19.19" height=".25"/>
    <rect class="cls-19" x="52.46" y="335.94" width="43.19" height=".25"/>
    <rect class="cls-19" x="104.56" y="335.94" width="6.33" height=".25"/>
    <rect class="cls-19" x="131.47" y="340.16" width="93.68" height=".25"/>
    <g>
      <path class="cls-19" d="M238.4,282.85H45.3c-3.15,0-5.71-2.56-5.71-5.71V5.71c0-3.15,2.56-5.71,5.71-5.71H238.4c3.15,0,5.71,2.56,5.71,5.71V277.14c0,3.15-2.56,5.71-5.71,5.71ZM45.3,.25c-3.01,0-5.46,2.45-5.46,5.46V277.14c0,3.01,2.45,5.46,5.46,5.46H238.4c3.01,0,5.46-2.45,5.46-5.46V5.71c0-3.01-2.45-5.46-5.46-5.46H45.3Z"/>
      <path class="cls-19" d="M454.7,282.85h-193.1c-3.15,0-5.71-2.56-5.71-5.71V5.71c0-3.15,2.56-5.71,5.71-5.71h193.1c3.15,0,5.71,2.56,5.71,5.71V277.14c0,3.15-2.56,5.71-5.71,5.71ZM261.6,.25c-3.01,0-5.46,2.45-5.46,5.46V277.14c0,3.01,2.45,5.46,5.46,5.46h193.1c3.01,0,5.46-2.45,5.46-5.46V5.71c0-3.01-2.45-5.46-5.46-5.46h-193.1Z"/>
    </g>
    <rect class="cls-19" y="327.45" width="500" height=".25"/>
    <g>
      <path class="cls-1" d="M119.33,259.8c-.84-9.66-10.7-13.27-22.39-12.25-11.68,1.02-20.76,6.3-19.92,15.95l42.31-3.7Z"/>
      <path class="cls-1" d="M96.56,243.13c5.42-.47,7.15-5.05,6.68-10.48-.47-5.42-2.97-9.63-8.4-9.16-5.42,.47-7.15,5.05-6.68,10.48,.47,5.42,2.97,9.63,8.4,9.16Z"/>
    </g>
    <g>
      <g>
        <path class="cls-12" d="M340.1,54.02c.26,2.99-1.95,5.63-4.94,5.89-2.99,.26-5.63-1.95-5.89-4.94s1.95-5.63,4.94-5.89c2.99-.26,5.63,1.95,5.89,4.94Z"/>
        <path class="cls-12" d="M370.17,51.39c.26,2.99-1.95,5.63-4.94,5.89s-5.63-1.95-5.89-4.94c-.26-2.99,1.95-5.63,4.94-5.89s5.63,1.95,5.89,4.94Z"/>
        <path class="cls-12" d="M400.25,48.76c.26,2.99-1.95,5.63-4.94,5.89s-5.63-1.95-5.89-4.94,1.95-5.63,4.94-5.89,5.63,1.95,5.89,4.94Z"/>
        <path class="cls-12" d="M342.78,84.67c.26,2.99-1.95,5.63-4.94,5.89-2.99,.26-5.63-1.95-5.89-4.94-.26-2.99,1.95-5.63,4.94-5.89s5.63,1.95,5.89,4.94Z"/>
        <path class="cls-12" d="M372.85,82.04c.26,2.99-1.95,5.63-4.94,5.89s-5.63-1.95-5.89-4.94,1.95-5.63,4.94-5.89c2.99-.26,5.63,1.95,5.89,4.94Z"/>
        <path class="cls-12" d="M402.93,79.41c.26,2.99-1.95,5.63-4.94,5.89-2.99,.26-5.63-1.95-5.89-4.94s1.95-5.63,4.94-5.89,5.63,1.95,5.89,4.94Z"/>
        <path class="cls-12" d="M345.46,115.32c.26,2.99-1.95,5.63-4.94,5.89s-5.63-1.95-5.89-4.94c-.26-2.99,1.95-5.63,4.94-5.89s5.63,1.95,5.89,4.94Z"/>
        <path class="cls-12" d="M375.54,112.69c.26,2.99-1.95,5.63-4.94,5.89-2.99,.26-5.63-1.95-5.89-4.94s1.95-5.63,4.94-5.89c2.99-.26,5.63,1.95,5.89,4.94Z"/>
        <path class="cls-12" d="M405.61,110.06c.26,2.99-1.95,5.63-4.94,5.89s-5.63-1.95-5.89-4.94,1.95-5.63,4.94-5.89c2.99-.26,5.63,1.95,5.89,4.94Z"/>
      </g>
      <path class="cls-16" d="M399.11,111.83l-61.79,5.41,54.78-66.57-56.13,4.91c-.66,.06-1.23-.43-1.29-1.08h0c-.06-.66,.43-1.23,1.08-1.29l61.79-5.41-54.78,66.57,56.13-4.91c.66-.06,1.23,.43,1.29,1.08h0c.06,.66-.43,1.23-1.08,1.29Z"/>
    </g>
    <g>
      <path class="cls-1" d="M400.06,230.65c-.2-.59-.73-1.03-1.35-1.07-2.83-.19-5.23-1.25-7.12-3.15-2.47-2.48-3.92-6.26-4.16-10.74-.04-.84-.74-1.49-1.58-1.49h0c-.93,0-1.66,.78-1.61,1.7,.29,5.26,2.06,9.75,5.09,12.79,2.36,2.37,5.41,3.76,8.88,4.06,.06,0,.14,.01,.23,.02,1.15,.09,2.02-1.03,1.64-2.12Z"/>
      <g>
        <path class="cls-1" d="M396.86,249.85c-13.25-1.16-22.81-10.19-25.84-24.29-.19-.9,.38-1.78,1.29-1.94h0c.84-.15,1.65,.39,1.83,1.22,2.71,12.68,11.22,20.8,23,21.83,12.92,1.13,26.79-7.37,29.27-28.79,.1-.87,.86-1.51,1.73-1.43h0c.89,.08,1.56,.87,1.45,1.76-2.38,20.2-15.66,33.15-32.74,31.65Z"/>
        <path class="cls-1" d="M371.86,211.51h0c-.89-.08-1.56-.87-1.45-1.76,2.38-20.2,15.66-33.15,32.74-31.65,14.96,1.31,25.04,12.51,26.62,29.38,.08,.89-.61,1.67-1.5,1.72h0c-.87,.05-1.61-.61-1.69-1.47-1.44-15.2-10.42-25.27-23.7-26.44-12.92-1.13-26.79,7.37-29.27,28.79-.1,.87-.86,1.51-1.73,1.43Z"/>
        <path class="cls-1" d="M397.51,241.28c-2.46-.22-4.77-.79-6.9-1.72-.86-.38-1.22-1.42-.77-2.24h0c.39-.72,1.27-1.03,2.02-.7,1.99,.88,4.2,1.39,6.57,1.52,9.8,.56,20.14-6.38,21.15-23.14,.62-10.33-2.91-18.67-9.52-22.66-.71-.43-.97-1.32-.61-2.07h0c.41-.84,1.47-1.15,2.27-.67,7.64,4.61,11.75,14.03,11.05,25.58-.98,16.17-11.06,26.92-24.53,26.15-.25-.01-.5-.03-.75-.05Z"/>
        <path class="cls-1" d="M383.27,231.31c-.77,.53-1.83,.28-2.3-.53-2.84-4.9-4.16-11.23-3.75-18.02,.93-15.47,10.21-25.98,22.8-26.18,.93-.02,1.69,.77,1.64,1.7h0c-.05,.84-.72,1.49-1.56,1.51-9.34,.18-18.72,7.24-19.68,23.17-.37,6.18,.81,11.89,3.34,16.26,.42,.72,.2,1.63-.49,2.1h0Z"/>
        <path class="cls-1" d="M405.13,230h0c-.33-.74-.04-1.6,.65-2.02,4.2-2.53,6.79-7.85,6.83-14.25,.03-5.13-1.45-9.47-4.19-12.22-2.11-2.12-4.84-3.19-8.12-3.18-4.93,.01-8.92,2.71-11.13,7.47-.35,.75-1.21,1.1-1.99,.82h0c-.88-.32-1.3-1.34-.9-2.19,2.74-5.84,7.87-9.28,14.02-9.3,4.1,0,7.69,1.42,10.39,4.13,3.35,3.36,5.17,8.51,5.13,14.5-.05,7.56-3.23,13.9-8.42,17-.82,.49-1.88,.12-2.27-.75Z"/>
        <path class="cls-1" d="M393.61,218.24c-.91,.37-1.93-.16-2.16-1.11-.11-.43-.19-.88-.26-1.34-.91-5.98,2.31-11.19,7.48-12.12,2.67-.48,5.05,.15,6.87,1.77,.74,.66,.68,1.84-.12,2.41l-.1,.07c-.61,.43-1.4,.34-1.97-.15-1.09-.93-2.46-1.25-4.11-.96-3.94,.7-5.44,4.8-4.88,8.49,.05,.36,.12,.71,.2,1.04,.19,.78-.2,1.59-.95,1.89h0Z"/>
        <path class="cls-1" d="M398.9,224.4s0,0-.01,0c-1.1-.1-1.71-1.33-1.12-2.27l.14-.22c.3-.47,.82-.73,1.38-.69,.47,.03,.98,0,1.5-.09,3.44-.62,5.02-3.82,4.99-7.08,0-.81,.56-1.51,1.36-1.64h0c.94-.14,1.83,.56,1.84,1.51,.1,5.22-2.98,9.53-7.63,10.36-.84,.15-1.66,.19-2.44,.12Z"/>
        <path class="cls-1" d="M399.61,218.49c-1.7-.15-2.97-1.3-3.44-2.94-.27-.95,.53-1.87,1.51-1.78l.37,.03c.57,.05,1.04,.44,1.23,.98,.09,.26,.27,.49,.6,.52,.77,.07,.9-1.04,.92-1.26,.01-.16,.05-.77-.22-1.13-.26-.35-.43-.76-.4-1.2h0c.12-1.42,1.92-2,2.83-.89,.72,.88,1.09,2.11,.97,3.5-.23,2.62-2.08,4.37-4.39,4.17Z"/>
        <path class="cls-1" d="M369.53,182.7h0c-.88-.08-1.53-.85-1.45-1.73l1.21-13.87,13.87,1.21c.88,.08,1.53,.85,1.45,1.73h0c-.08,.88-.85,1.53-1.73,1.45l-10.68-.93-.93,10.68c-.08,.88-.85,1.53-1.73,1.45Z"/>
        <path class="cls-1" d="M435.46,188.47h0c-.88-.08-1.53-.85-1.45-1.73l.93-10.68-10.68-.93c-.88-.08-1.53-.85-1.45-1.73h0c.08-.88,.85-1.53,1.73-1.45l13.87,1.21-1.21,13.87c-.08,.88-.85,1.53-1.73,1.45Z"/>
        <path class="cls-1" d="M430.55,263.02l-13.87-1.21c-.88-.08-1.53-.85-1.45-1.73h0c.08-.88,.85-1.53,1.73-1.45l10.68,.93,.93-10.68c.08-.88,.85-1.53,1.73-1.45h0c.88,.08,1.53,.85,1.45,1.73l-1.21,13.87Z"/>
        <path class="cls-1" d="M375.3,258.18l-13.87-1.21,1.21-13.87c.08-.88,.85-1.53,1.73-1.45h0c.88,.08,1.53,.85,1.45,1.73l-.93,10.68,10.68,.93c.88,.08,1.53,.85,1.45,1.73h0c-.08,.88-.85,1.53-1.73,1.45Z"/>
      </g>
    </g>
    <path class="cls-14" d="M74.73,228.17h0c-.54,.05-1.02-.35-1.07-.89l-.75-8.53,8.53-.75c.54-.05,1.02,.35,1.07,.89h0c.05,.54-.35,1.02-.89,1.07l-6.56,.57,.57,6.56c.05,.54-.35,1.02-.89,1.07Z"/>
    <path class="cls-14" d="M115.27,224.63h0c-.54,.05-1.02-.35-1.07-.89l-.57-6.56-6.56,.57c-.54,.05-1.02-.35-1.07-.89h0c-.05-.54,.35-1.02,.89-1.07l8.53-.75,.75,8.53c.05,.54-.35,1.02-.89,1.07Z"/>
    <path class="cls-14" d="M119.47,261.34l-8.53,.75c-.54,.05-1.02-.35-1.07-.89h0c-.05-.54,.35-1.02,.89-1.07l6.56-.57-.57-6.56c-.05-.54,.35-1.02,.89-1.07h0c.54-.05,1.02,.35,1.07,.89l.75,8.53Z"/>
    <path class="cls-14" d="M85.49,264.31l-8.53,.75-.75-8.53c-.05-.54,.35-1.02,.89-1.07h0c.54-.05,1.02,.35,1.07,.89l.57,6.56,6.56-.57c.54-.05,1.02,.35,1.07,.89h0c.05,.54-.35,1.02-.89,1.07Z"/>
    <path class="cls-19" d="M114.58,86l-32.63,2.85-.67-7.64c-.69-7.92,5.19-14.93,13.11-15.62,7.92-.69,14.93,5.19,15.62,13.11l.39,4.44,4.71-.41-.39-4.44c-.92-10.52-10.23-18.33-20.74-17.41-10.52,.92-18.33,10.23-17.41,20.74l.67,7.68c-3.8,.74-6.5,4.24-6.16,8.18l2.33,26.64c.37,4.21,4.08,7.33,8.3,6.96l36.53-3.2c4.21-.37,7.33-4.08,6.96-8.3l-2.33-26.64c-.37-4.21-4.08-7.33-8.3-6.96Zm-13.86,20.53l.8,9.17c.13,1.51-.98,2.83-2.49,2.97-1.51,.13-2.83-.98-2.97-2.49l-.8-9.17c-1.2-.74-2.05-2-2.19-3.51-.22-2.53,1.65-4.77,4.19-4.99,2.53-.22,4.77,1.65,4.99,4.19,.13,1.51-.49,2.9-1.54,3.84Z"/>
    <path class="cls-1" d="M170.44,101.44l-3.3-5.38c-1.79,.25-3.25,.25-5.04,0l-3.3,5.38-.63-.17c-2.13-.57-4.18-1.42-6.1-2.53l-.57-.33,1.4-5.84c.11-.47,.59-.76,1.06-.65h0c.47,.11,.76,.59,.65,1.06l-1.09,4.55c1.43,.78,2.92,1.4,4.47,1.86l3.22-5.25,.58,.1c1.87,.31,3.77,.31,5.64,0l.58-.1,3.22,5.25c1.54-.46,3.04-1.08,4.47-1.86l-1.43-5.98,.48-.34c1.31-.94,2.47-2.05,3.47-3.31,.3-.37,.83-.46,1.21-.18h0c.4,.29,.5,.86,.19,1.25-.98,1.24-2.11,2.35-3.37,3.32l1.47,6.13-.57,.33c-1.92,1.11-3.97,1.96-6.09,2.53l-.63,.17Zm-20.22-11.74c-.28-.32-.55-.64-.8-.98l-6.13,1.47-.33-.57c-1.11-1.92-1.96-3.97-2.53-6.1l-.17-.63,5.38-3.3c-.12-.9-.18-1.72-.18-2.52s.06-1.62,.18-2.52l-5.38-3.3,.17-.63c.57-2.13,1.42-4.18,2.53-6.1l.33-.57,6.13,1.47c1.03-1.34,2.22-2.53,3.56-3.56l-1.11-4.64c-.11-.47,.18-.95,.65-1.06h0c.47-.11,.95,.18,1.06,.65l1.38,5.78-.48,.35c-1.54,1.11-2.88,2.45-3.99,3.99l-.34,.48-5.99-1.43c-.77,1.43-1.4,2.92-1.85,4.47l5.25,3.22-.09,.58c-.17,1.03-.25,1.95-.25,2.82s.08,1.79,.25,2.82l.1,.58-5.25,3.22c.46,1.54,1.08,3.04,1.85,4.47l5.99-1.43,.34,.48c.33,.45,.67,.89,1.04,1.31,.31,.35,.3,.87-.04,1.2l-.03,.03c-.35,.34-.92,.31-1.24-.06Zm35.74,.49l-2.26-.54c-.47-.11-.76-.59-.65-1.06h0c.11-.47,.59-.76,1.06-.65l.98,.23c.77-1.43,1.4-2.92,1.85-4.47l-5.25-3.22,.1-.58c.17-1.03,.25-1.95,.25-2.82s-.08-1.79-.25-2.82l-.09-.58,5.25-3.22c-.46-1.54-1.08-3.04-1.85-4.47l-5.99,1.43-.35-.48c-1.11-1.54-2.45-2.88-3.99-3.99l-.48-.35,1.43-5.99c-1.43-.78-2.92-1.4-4.47-1.86l-3.22,5.25-.58-.09c-1.87-.3-3.77-.3-5.64,0l-.58,.09-3.22-5.25c-.2,.06-.4,.12-.6,.19-.45,.15-.93-.09-1.09-.53h0c-.17-.46,.07-.98,.54-1.14,.44-.14,.88-.27,1.32-.39l.63-.17,3.3,5.38c1.79-.25,3.24-.25,5.04,0l3.3-5.38,.63,.17c2.13,.57,4.18,1.42,6.09,2.53l.57,.33-1.47,6.13c1.34,1.03,2.53,2.22,3.56,3.56l6.13-1.47,.33,.57c1.11,1.92,1.96,3.97,2.53,6.1l.17,.63-5.38,3.3c.12,.9,.18,1.73,.18,2.52s-.06,1.62-.18,2.52l5.38,3.3-.17,.63c-.57,2.13-1.42,4.18-2.53,6.1l-.33,.57Zm-21.58-4.54c-4.47-.13-8.19-3.85-8.32-8.32-.13-4.5,3.24-8.26,7.58-8.77,.52-.06,.99,.35,.99,.88h0c0,.44-.33,.82-.77,.87-3.83,.43-6.71,4.06-5.91,8.14,.52,2.65,2.66,4.79,5.31,5.31,4.35,.85,8.18-2.48,8.18-6.68,0-1.41-.43-2.77-1.23-3.91-.25-.36-.18-.85,.15-1.14h0c.4-.35,1.01-.28,1.31,.16,1,1.43,1.53,3.14,1.53,4.9,0,4.81-3.98,8.71-8.82,8.57Z"/>
    <path class="cls-16" d="M108.31,174.64l-2.13-3.47c-1.15,.16-2.1,.16-3.25,0l-2.13,3.47-.41-.11c-1.37-.37-2.7-.92-3.94-1.63l-.37-.21,.9-3.77c.07-.31,.38-.49,.69-.42h0c.31,.07,.49,.38,.42,.69l-.71,2.94c.92,.5,1.89,.9,2.89,1.2l2.08-3.39,.38,.06c1.21,.2,2.44,.2,3.64,0l.38-.06,2.08,3.39c1-.3,1.97-.7,2.89-1.2l-.93-3.87,.31-.22c.85-.61,1.6-1.32,2.24-2.14,.19-.24,.53-.3,.78-.12h0c.26,.19,.32,.56,.12,.81-.64,.8-1.37,1.52-2.18,2.14l.95,3.96-.37,.21c-1.24,.72-2.56,1.27-3.94,1.63l-.41,.11Zm-13.06-7.58c-.18-.2-.35-.42-.52-.63l-3.96,.95-.21-.37c-.72-1.24-1.27-2.56-1.63-3.94l-.11-.41,3.47-2.13c-.08-.58-.12-1.11-.12-1.63s.04-1.05,.12-1.63l-3.47-2.13,.11-.41c.37-1.37,.92-2.7,1.63-3.94l.21-.37,3.96,.95c.66-.87,1.44-1.64,2.3-2.3l-.72-3c-.07-.3,.11-.61,.42-.68h0c.3-.07,.61,.11,.68,.42l.89,3.73-.31,.23c-.99,.71-1.86,1.58-2.58,2.58l-.22,.31-3.87-.93c-.5,.92-.9,1.89-1.2,2.89l3.39,2.08-.06,.38c-.11,.67-.16,1.26-.16,1.82s.05,1.16,.16,1.82l.06,.38-3.39,2.08c.3,1,.7,1.97,1.2,2.89l3.87-.93,.22,.31c.21,.29,.44,.58,.67,.85,.2,.23,.19,.56-.02,.77l-.02,.02c-.23,.22-.59,.2-.8-.04Zm23.09,.32l-1.46-.35c-.31-.07-.49-.38-.42-.69h0c.07-.31,.38-.49,.69-.42l.63,.15c.5-.92,.9-1.89,1.2-2.89l-3.39-2.08,.06-.38c.11-.67,.16-1.26,.16-1.82s-.05-1.16-.16-1.82l-.06-.38,3.39-2.08c-.3-1-.7-1.97-1.2-2.89l-3.87,.93-.22-.31c-.71-.99-1.58-1.86-2.58-2.58l-.31-.23,.93-3.87c-.92-.5-1.89-.9-2.89-1.2l-2.08,3.39-.38-.06c-1.21-.2-2.44-.2-3.65,0l-.38,.06-2.08-3.39c-.13,.04-.26,.08-.39,.12-.29,.09-.6-.06-.7-.35h0c-.11-.3,.05-.64,.35-.73,.28-.09,.57-.18,.85-.25l.41-.11,2.13,3.47c1.16-.16,2.09-.16,3.25,0l2.13-3.47,.41,.11c1.37,.37,2.7,.92,3.94,1.63l.37,.21-.95,3.96c.87,.66,1.64,1.44,2.3,2.3l3.96-.95,.21,.37c.72,1.24,1.27,2.56,1.63,3.94l.11,.41-3.47,2.13c.08,.58,.12,1.11,.12,1.63s-.04,1.05-.12,1.63l3.47,2.13-.11,.41c-.37,1.37-.92,2.7-1.63,3.94l-.21,.37Zm-13.94-2.93c-2.89-.08-5.29-2.49-5.38-5.37-.08-2.91,2.09-5.34,4.9-5.66,.34-.04,.64,.23,.64,.57h0c0,.29-.21,.53-.5,.56-2.47,.28-4.33,2.62-3.82,5.26,.34,1.71,1.72,3.09,3.43,3.43,2.81,.55,5.28-1.6,5.28-4.31,0-.91-.28-1.79-.8-2.53-.16-.23-.12-.55,.09-.74h0c.26-.23,.65-.18,.85,.1,.64,.92,.99,2.03,.99,3.16,0,3.11-2.57,5.62-5.7,5.54Z"/>
  </g>
  <g id="Shadow">
    <ellipse id="_Path_" data-name="&amp;lt;Path&amp;gt;" class="cls-12" cx="250" cy="360.74" rx="193.89" ry="11.32"/>
  </g>
  <g id="Device">
    <g>
      <path class="cls-20" d="M363.45,90.87h-32.56l-23.03,263.25h32.56c9.26,0,17.45-7.53,18.26-16.79l20.09-229.66c.81-9.26-6.06-16.79-15.32-16.79Z"/>
      <path class="cls-20" d="M356.81,90.87h-110.2c-9.26,0-17.45,7.53-18.26,16.79l-20.09,229.66c-.81,9.26,6.06,16.79,15.32,16.79h110.2c9.26,0,17.45-7.53,18.26-16.79l20.09-229.66c.81-9.26-6.06-16.79-15.32-16.79Z"/>
      <path class="cls-4" d="M356.81,90.87h-110.2c-9.26,0-17.45,7.53-18.26,16.79l-20.09,229.66c-.81,9.26,6.06,16.79,15.32,16.79h110.2c9.26,0,17.45-7.53,18.26-16.79l20.09-229.66c.81-9.26-6.06-16.79-15.32-16.79Z"/>
      <path class="cls-3" d="M356.34,96.25h-29.05c-1.71,0-3.32,1.12-3.96,2.77h0c-2.35,6.07-8.3,10.23-14.63,10.23h-17.18c-6.34,0-11.56-4.16-12.84-10.23h0c-.35-1.64-1.76-2.77-3.47-2.77h-29.05c-6.3,0-11.86,5.11-12.41,11.41l-20.09,229.66c-.55,6.3,4.11,11.41,10.41,11.41h110.2c6.3,0,11.86-5.11,12.41-11.41l20.09-229.66c.55-6.3-4.11-11.41-10.41-11.41Z"/>
      <path class="cls-2" d="M328.88,221.01h-77.12c-2.29,0-3.98-1.85-3.78-4.14l.39-4.41c.2-2.29,2.22-4.14,4.5-4.14h77.12c2.29,0,3.98,1.85,3.78,4.14l-.39,4.41c-.2,2.29-2.22,4.14-4.5,4.14Z"/>
      <path class="cls-2" d="M327.22,240.05h-77.12c-2.29,0-3.98-1.85-3.78-4.14l.39-4.41c.2-2.29,2.22-4.14,4.5-4.14h77.12c2.29,0,3.98,1.85,3.78,4.14l-.39,4.41c-.2,2.29-2.22,4.14-4.5,4.14Z"/>
      <path class="cls-18" d="M305.45,100.56c-.22,2.54-2.46,4.59-4.99,4.59s-4.41-2.06-4.19-4.59c.22-2.54,2.46-4.59,4.99-4.59s4.41,2.06,4.19,4.59Z"/>
      <path class="cls-18" d="M303.37,100.56c-.12,1.39-1.34,2.51-2.73,2.51s-2.41-1.12-2.29-2.51c.12-1.39,1.34-2.51,2.73-2.51s2.41,1.12,2.29,2.51Z"/>
      <g>
        <g class="cls-15">
          <path class="cls-2" d="M342.77,108.21h0c-.74,0-1.29-.6-1.23-1.35l.22-2.46c.07-.74,.72-1.35,1.46-1.35h0c.74,0,1.29,.6,1.23,1.35l-.22,2.46c-.07,.74-.72,1.35-1.46,1.35Z"/>
          <path class="cls-2" d="M353.53,108.21h0c-.74,0-1.29-.6-1.23-1.35l.5-5.77c.06-.74,.72-1.35,1.46-1.35h0c.74,0,1.29,.6,1.23,1.35l-.5,5.77c-.06,.74-.72,1.35-1.46,1.35Z"/>
          <path class="cls-2" d="M348.15,108.21h0c-.74,0-1.29-.6-1.23-1.35l.36-4.11c.07-.74,.72-1.35,1.46-1.35h0c.74,0,1.29,.6,1.23,1.35l-.36,4.11c-.06,.74-.72,1.35-1.46,1.35Z"/>
        </g>
        <g class="cls-15">
          <path class="cls-2" d="M250.64,108.21h-6.76c-.42,0-.73-.34-.69-.76l.32-3.63c.04-.42,.41-.76,.83-.76h6.76c.42,0,.73,.34,.69,.76l-.32,3.63c-.04,.42-.41,.76-.83,.76Z"/>
          <path class="cls-2" d="M253.77,107.23h0c-.42,0-.73-.34-.69-.76l.15-1.66c.04-.42,.41-.76,.83-.76h0c.42,0,.73,.34,.69,.76l-.15,1.66c-.04,.42-.41,.76-.83,.76Z"/>
        </g>
      </g>
      <ellipse class="cls-2" cx="294.81" cy="169.68" rx="33.73" ry="30.9" transform="translate(-35.49 250.96) rotate(-43.75)"/>
      <g>
        <path class="cls-20" d="M294.92,168.43c-8.49,0-15.65,3.23-16.26,10.24l-.68,7.78h30.73l.68-7.78c.61-7.01-5.98-10.24-14.47-10.24Z"/>
        <path class="cls-20" d="M295.2,165.22c3.94,0,5.75-3.19,6.1-7.13,.34-3.94-.91-7.13-4.85-7.13s-5.75,3.19-6.1,7.13c-.34,3.94,.91,7.13,4.85,7.13Z"/>
      </g>
      <g>
        <path class="cls-20" d="M325.36,214.43c-2.1,0-3.86,.8-4.02,2.53l-.17,1.92h7.59l.17-1.92c.15-1.73-1.48-2.53-3.57-2.53Z"/>
        <path class="cls-20" d="M325.43,213.64c.97,0,1.42-.79,1.51-1.76,.09-.97-.23-1.76-1.2-1.76s-1.42,.79-1.51,1.76c-.09,.97,.23,1.76,1.2,1.76Z"/>
      </g>
      <path class="cls-20" d="M301.99,259.09h-30.01c-3.51,0-6.1-2.84-5.79-6.35h0c.31-3.51,3.4-6.35,6.9-6.35h30.01c3.51,0,6.1,2.84,5.79,6.35h0c-.31,3.51-3.4,6.35-6.9,6.35Z"/>
      <path class="cls-20" d="M298.37,329.86h-32.12c-3.7,0-6.44-3-6.12-6.71l2.05-23.43c.32-3.7,3.59-6.71,7.29-6.71h32.12c3.7,0,6.44,3,6.12,6.71l-2.05,23.43c-.32,3.7-3.59,6.71-7.29,6.71Z"/>
      <g class="cls-10">
        <path class="cls-2" d="M288.47,305.65c.19-2.23-1.45-4.04-3.68-4.04s-4.19,1.81-4.39,4.04c-.12,1.33,.43,2.49,1.36,3.23l-.71,8.07c-.12,1.32,.86,2.4,2.19,2.4s2.49-1.07,2.61-2.4l.71-8.07c1.05-.74,1.8-1.9,1.92-3.23Z"/>
      </g>
      <path class="cls-20" d="M301.88,297.9h-4.14l1.01-11.59c.61-6.96-4.56-12.63-11.53-12.63s-13.13,5.67-13.74,12.63l-1.01,11.59h-4.14l1.01-11.59c.81-9.25,8.99-16.77,18.24-16.77s16.11,7.52,15.3,16.77l-1.01,11.59Z"/>
      <path class="cls-20" d="M325.87,232.18l.1-1.11c.1-1.14-.74-2.06-1.88-2.06s-2.14,.92-2.24,2.06l-.1,1.11c-.45,0-.85,.37-.89,.82l-.26,2.96c-.04,.45,.3,.82,.75,.82h4.12c.45,0,.85-.37,.89-.82l.26-2.96c.04-.45-.3-.82-.75-.82Zm-1.83-2.66c.86,0,1.49,.7,1.42,1.55l-.1,1.11h-3.1l.1-1.11c.07-.86,.83-1.55,1.69-1.55Z"/>
      <g>
        <path class="cls-22" d="M263.85,233.37l-1.44-.3c-.17-.04-.26-.21-.19-.38l.6-1.42c.13-.3-.24-.53-.47-.29l-1.09,1.12c-.13,.13-.34,.13-.44,0l-.89-1.12c-.19-.24-.6-.02-.52,.29l.35,1.42c.04,.17-.08,.35-.25,.38l-1.49,.3c-.32,.06-.36,.51-.05,.58l1.44,.3c.17,.04,.26,.21,.19,.38l-.6,1.42c-.13,.3,.24,.53,.47,.29l1.09-1.12c.13-.13,.34-.13,.44,0l.89,1.12c.19,.24,.6,.02,.52-.29l-.35-1.42c-.04-.17,.08-.35,.25-.38l1.49-.3c.32-.06,.36-.51,.05-.58Z"/>
        <path class="cls-22" d="M273.31,233.37l-1.44-.3c-.17-.04-.26-.21-.19-.38l.6-1.42c.13-.3-.24-.53-.47-.29l-1.09,1.12c-.13,.13-.34,.13-.44,0l-.89-1.12c-.19-.24-.6-.02-.52,.29l.35,1.42c.04,.17-.08,.35-.25,.38l-1.49,.3c-.32,.06-.36,.51-.05,.58l1.44,.3c.17,.04,.26,.21,.19,.38l-.6,1.42c-.13,.3,.24,.53,.47,.29l1.09-1.12c.13-.13,.34-.13,.44,0l.89,1.12c.19,.24,.6,.02,.52-.29l-.35-1.42c-.04-.17,.08-.35,.25-.38l1.49-.3c.32-.06,.36-.51,.05-.58Z"/>
        <path class="cls-22" d="M282.77,233.37l-1.44-.3c-.17-.04-.26-.21-.19-.38l.6-1.42c.13-.3-.24-.53-.47-.29l-1.09,1.12c-.13,.13-.34,.13-.44,0l-.89-1.12c-.19-.24-.6-.02-.52,.29l.35,1.42c.04,.17-.08,.35-.25,.38l-1.49,.3c-.32,.06-.36,.51-.05,.58l1.44,.3c.17,.04,.26,.21,.19,.38l-.6,1.42c-.13,.3,.24,.53,.47,.29l1.09-1.12c.13-.13,.34-.13,.44,0l.89,1.12c.19,.24,.6,.02,.52-.29l-.35-1.42c-.04-.17,.08-.35,.25-.38l1.49-.3c.32-.06,.36-.51,.05-.58Z"/>
        <path class="cls-22" d="M292.24,233.37l-1.44-.3c-.17-.04-.26-.21-.19-.38l.6-1.42c.13-.3-.24-.53-.47-.29l-1.09,1.12c-.13,.13-.34,.13-.44,0l-.89-1.12c-.19-.24-.6-.02-.52,.29l.35,1.42c.04,.17-.08,.35-.25,.38l-1.49,.3c-.32,.06-.36,.51-.05,.58l1.44,.3c.17,.04,.26,.21,.19,.38l-.6,1.42c-.13,.3,.24,.53,.47,.29l1.09-1.12c.13-.13,.34-.13,.44,0l.89,1.12c.19,.24,.6,.02,.52-.29l-.35-1.42c-.04-.17,.08-.35,.25-.38l1.49-.3c.32-.06,.36-.51,.05-.58Z"/>
        <path class="cls-22" d="M301.7,233.37l-1.44-.3c-.17-.04-.26-.21-.19-.38l.6-1.42c.13-.3-.24-.53-.47-.29l-1.09,1.12c-.13,.13-.34,.13-.44,0l-.89-1.12c-.19-.24-.6-.02-.52,.29l.35,1.42c.04,.17-.08,.35-.25,.38l-1.49,.3c-.32,.06-.36,.51-.05,.58l1.44,.3c.17,.04,.26,.21,.19,.38l-.6,1.42c-.13,.3,.24,.53,.47,.29l1.09-1.12c.13-.13,.34-.13,.44,0l.89,1.12c.19,.24,.6,.02,.52-.29l-.35-1.42c-.04-.17,.08-.35,.25-.38l1.49-.3c.32-.06,.36-.51,.05-.58Z"/>
        <path class="cls-22" d="M311.16,233.37l-1.44-.3c-.17-.04-.26-.21-.19-.38l.6-1.42c.13-.3-.24-.53-.47-.29l-1.09,1.12c-.13,.13-.34,.13-.44,0l-.89-1.12c-.19-.24-.6-.02-.52,.29l.35,1.42c.04,.17-.08,.35-.25,.38l-1.49,.3c-.32,.06-.36,.51-.05,.58l1.44,.3c.17,.04,.26,.21,.19,.38l-.6,1.42c-.13,.3,.24,.53,.47,.29l1.09-1.12c.13-.13,.34-.13,.44,0l.89,1.12c.19,.24,.6,.02,.52-.29l-.35-1.42c-.04-.17,.08-.35,.25-.38l1.49-.3c.32-.06,.36-.51,.05-.58Z"/>
      </g>
      <g>
        <path class="cls-22" d="M288.35,212.66h-17.77c-1.1,0-2.08,.9-2.17,2-.1,1.1,.72,2,1.82,2h17.77c1.1,0,2.08-.9,2.17-2,.1-1.1-.72-2-1.82-2Z"/>
        <path class="cls-22" d="M306.39,212.66h-10.31c-1.1,0-2.08,.9-2.17,2-.1,1.1,.72,2,1.82,2h10.31c1.1,0,2.08-.9,2.17-2,.1-1.1-.72-2-1.82-2Z"/>
      </g>
      <path class="cls-22" d="M320,303.31c-6.7,2.68-12.57,6.58-16.59,11.01-2.36-2.01-5.71-3.4-9.72-4.04l-.47-.07-.21,2.36,.26,.1c3.96,1.5,7.19,4.16,9.33,7.69l.34,.55,.37-.59c4.12-6.6,10.13-12.12,16.92-15.56l.23-.12,.14-1.57-.59,.24Z"/>
    </g>
  </g>
  <g id="Policy">
    <path class="cls-13" d="M230.64,106.42c-1.25,2.2-2.07,4.65-2.3,7.25l-14.89,170.22h46.08l9.26-35.49-3.05-35.49,9.26-35.49-3.05-35.49,9.26-35.49h-50.56Z"/>
    <g>
      <g>
        <polygon class="cls-20" points="267.95 131.91 277.21 96.42 160.68 96.42 151.43 131.91 154.47 167.41 145.22 202.9 148.26 238.39 139.01 273.89 255.53 273.89 264.79 238.39 261.74 202.9 271 167.41 267.95 131.91"/>
        <polygon class="cls-6" points="267.95 131.91 277.21 96.42 160.68 96.42 151.43 131.91 154.47 167.41 145.22 202.9 148.26 238.39 139.01 273.89 255.53 273.89 264.79 238.39 261.74 202.9 271 167.41 267.95 131.91"/>
        <polygon class="cls-5" points="267.95 131.91 151.43 131.91 160.68 96.42 277.21 96.42 267.95 131.91"/>
        <polygon class="cls-5" points="261.74 202.9 145.22 202.9 154.47 167.41 271 167.41 261.74 202.9"/>
        <polygon class="cls-5" points="255.53 273.89 139.01 273.89 148.26 238.39 264.79 238.39 255.53 273.89"/>
      </g>
      <path class="cls-13" d="M252.36,146.75c-1,.31-2.28,.5-3.68,.5-2.06,0-3.86-.41-4.89-1.02-.28-.17-.59-.25-.9-.25h0c-.29,0-.57,.08-.84,.23-.02,.01-.04,.01-.06,.03h0s-.02,.01-.04,.02c-.38,.22-.86,.42-1.42,.57-.96,.27-2.15,.43-3.43,.43-.35,0-.69-.01-1.02-.03-1-.07-1.91-.23-2.66-.47-.13-.04-.26-.07-.39-.07-.91-.06-1.72,.64-1.72,1.6h0v1.08h-45.29c-3.51,0-6.35,2.84-6.35,6.35v6.4c0,3.51,2.84,6.35,6.35,6.35h51.53c.11,0,.22-.01,.34-.02,.56,.46,1.13,.92,1.75,1.38,.73,.56,1.51,1.12,2.32,1.71,.56,.41,1.34,.41,1.9,0,6.48-4.7,10.64-7.94,10.64-16.85v-6.4c0-1.1-1.07-1.85-2.11-1.52Z"/>
      <g>
        <rect class="cls-20" x="178.67" y="145.83" width="64.22" height="19.09" rx="6.35" ry="6.35"/>
        <g>
          <g>
            <path class="cls-20" d="M247.69,143.72c-2.06,0-3.86-.41-4.89-1.02-.56-.34-1.24-.34-1.8,0-1.03,.61-2.84,1.02-4.89,1.02-1.4,0-2.68-.19-3.68-.5-1.05-.33-2.11,.43-2.11,1.52v6.4c0,8.91,4.16,12.15,10.64,16.85,.56,.41,1.34,.41,1.9,0,6.48-4.7,10.64-7.94,10.64-16.85v-6.4c0-1.1-1.07-1.85-2.11-1.52-1,.31-2.28,.5-3.68,.5Z"/>
            <path class="cls-4" d="M247.69,143.72c-2.06,0-3.86-.41-4.89-1.02-.56-.34-1.24-.34-1.8,0-1.03,.61-2.84,1.02-4.89,1.02-1.4,0-2.68-.19-3.68-.5-1.05-.33-2.11,.43-2.11,1.52v6.4c0,8.91,4.16,12.15,10.64,16.85,.56,.41,1.34,.41,1.9,0,6.48-4.7,10.64-7.94,10.64-16.85v-6.4c0-1.1-1.07-1.85-2.11-1.52-1,.31-2.28,.5-3.68,.5Z"/>
            <path class="cls-7" d="M241,142.7c-1.03,.61-2.84,1.02-4.89,1.02-1.4,0-2.68-.19-3.68-.5-1.05-.33-2.11,.43-2.11,1.52v6.4c0,8.91,4.16,12.15,10.64,16.85,.28,.2,.62,.31,.95,.31v-25.85c-.31,0-.62,.08-.9,.25Z"/>
          </g>
          <path class="cls-22" d="M251.19,149.4c-4.19,1.73-7.77,4.26-10.12,7.13-1.64-1.3-3.89-2.2-6.53-2.61l-.31-.05v1.53l.18,.06c2.65,.97,4.89,2.69,6.48,4.98l.25,.36,.21-.39c2.29-4.27,5.87-7.85,10.07-10.08l.14-.08v-1.02l-.37,.15Z"/>
        </g>
      </g>
      <g>
        <path class="cls-20" d="M275.15,106.4h-4.42c-2.45,0-4.27-1.99-4.05-4.44l.39-4.42c.21-2.45,2.38-4.44,4.83-4.44h4.42c2.45,0,4.27,1.99,4.05,4.44l-.39,4.42c-.21,2.45-2.38,4.44-4.83,4.44Z"/>
        <polygon class="cls-2" points="276.99 97.53 276.03 96.48 273.61 98.7 271.59 96.48 270.44 97.53 272.47 99.75 270.06 101.97 271.02 103.03 273.43 100.81 275.46 103.03 276.6 101.97 274.57 99.75 276.99 97.53"/>
      </g>
    </g>
  </g>
  <g id="Character">
    <g>
      <g>
        <path class="cls-17" d="M176.37,144.54c2.56,2.79,5.01,5.67,7.43,8.59,2.42,2.91,4.78,5.87,7.11,8.86,.1,.13,.06,.08,.09,.12,.01,.02,.01,.05,.03,.06,.03,.03,.04,.08,.07,.1,.05,.07,.11,.13,.18,.2,.14,.13,.34,.22,.55,.26,.11,.02,.22,.03,.34,.02,.06,0,.12-.01,.18-.01,.03,0,.06-.02,.09-.02,.05-.02,.02,.02,.16-.06l2.5-1.36c3.36-1.78,6.75-3.52,10.25-5.08l2.93,3.63c-2.82,2.6-5.76,5.84-8.73,8.22l-2.24,1.76c-.06,.05-.3,.21-.45,.31-.17,.11-.34,.23-.52,.33-.36,.2-.73,.4-1.12,.55-.77,.33-1.59,.54-2.42,.67-1.67,.25-3.4,.08-5.02-.5-.81-.29-1.59-.68-2.3-1.17-.36-.24-.7-.51-1.03-.79-.17-.14-.32-.29-.47-.44l-.4-.4c-2.65-2.71-5.26-5.45-7.82-8.25-2.56-2.79-5.09-5.61-7.51-8.52l8.11-7.08Z"/>
        <path class="cls-17" d="M203.99,158.43l2.33-7.49,6.14,3.06s-.89,5.46-5.36,6.41l-3.11-1.98Z"/>
        <polygon class="cls-17" points="208.78 148.87 214.32 150.39 212.46 154 206.32 150.94 208.78 148.87"/>
      </g>
      <g>
        <path class="cls-17" d="M144.09,146.58c-.67,3.18-1.48,6.33-2.34,9.46-.85,3.14-1.78,6.26-2.75,9.36l-.36,1.17-.18,.58c-.04,.13-.06,.16-.1,.24-.11,.29-.18,.61-.19,.95-.02,.67,.14,1.41,.58,2.05,.04,.1,.38,.47,.65,.76l.83,.9,1.64,1.83c1.08,1.24,2.15,2.48,3.17,3.78l-3.48,4.03c-1.44-.82-2.82-1.7-4.2-2.59l-2.05-1.35-1.01-.69c-.34-.24-.62-.4-1.17-.86-1.9-1.61-3.32-3.9-3.84-6.45-.27-1.27-.33-2.59-.18-3.9,.04-.31,.1-.68,.15-.95l.11-.6,.21-1.2c.56-3.21,1.16-6.41,1.83-9.58,.67-3.18,1.38-6.35,2.24-9.49l10.46,2.53Z"/>
        <path class="cls-17" d="M141.63,177.39l4.13-2.11,1.82,7.01s-3.31,1.27-5.87-.36l-.07-4.54Z"/>
        <polygon class="cls-17" points="151.45 173.04 151.64 179.47 147.03 182.49 145.43 175.42 151.45 173.04"/>
      </g>
      <path class="cls-22" d="M164.94,113.52c.1,.5,.44,.84,.77,.78,.32-.07,.51-.52,.4-1.02s-.45-.84-.77-.78c-.32,.07-.5,.52-.4,1.02Z"/>
      <path class="cls-21" d="M165.34,114.37s1.71,2.63,3.23,3.76c-.71,1-2.28,.93-2.28,.93l-.95-4.68Z"/>
      <path class="cls-22" d="M162.57,111.13c-.07,0-.14-.03-.2-.08-.12-.11-.13-.3-.02-.42,1.12-1.21,2.47-.99,2.53-.98,.16,.03,.27,.18,.24,.34-.03,.16-.18,.27-.34,.24h0s-1.1-.16-1.99,.8c-.06,.06-.14,.1-.22,.1Z"/>
      <path class="cls-17" d="M150.52,120.49c1.1,4.59,2.2,12.99-1.73,16.05,0,0,1.54,4.65,12,4.65,11.5,0,5.5-3,5.5-3-6.28-1.22-6.11-6.67-5.02-10.24l-10.74-7.47Z"/>
      <path class="cls-22" d="M147.56,137.39c-.69-1.27-1.44-2.73,.12-3.19,1.72-.5,12.75-1.43,15.99-.49-1,1.77,.69,3.95,.69,3.95l-16.8-.27Z"/>
      <polygon class="cls-17" points="156.7 351.97 163.91 351.97 164.63 337.45 157.41 337.45 156.7 351.97"/>
      <polygon class="cls-17" points="110.91 349.97 118.22 350.35 122.66 336.05 115.35 335.66 110.91 349.97"/>
      <path class="cls-22" d="M118,349.77l-6.88-1.49c-.25-.05-.51,.07-.61,.31l-2.39,5.18c-.25,.54,.08,1.17,.66,1.28,2.41,.48,3.61,.59,6.64,1.25,1.86,.4,6.07,1.43,8.64,1.98,2.52,.54,3.46-1.91,2.46-2.37-4.5-2.06-6.38-3.86-7.59-5.55-.22-.3-.55-.51-.91-.59Z"/>
      <path class="cls-22" d="M163.53,351.24h-6.85c-.26,0-.48,.18-.53,.43l-1.24,5.57c-.13,.58,.31,1.13,.9,1.12,2.47-.04,6.04-.19,9.14-.19,3.63,0,6.77,.2,11.02,.2,2.57,0,3.29-2.6,2.21-2.84-4.91-1.07-8.91-1.19-13.15-3.8-.46-.28-.97-.49-1.51-.49Z"/>
      <path class="cls-22" d="M135.72,138.66c-5.45,2.59-6.92,18.28-6.92,18.28l13.47,6.22s3.34-4.93,3.6-12.67c.27-8.11-4.58-14.49-10.14-11.84Z"/>
      <path class="cls-9" d="M143.03,148.34c-2.43,3.77-2.2,9.62-1.36,14.55l.6,.28s3.35-4.93,3.6-12.67c.01-.48,.01-.96,0-1.43l-2.84-.73Z"/>
      <g>
        <path class="cls-20" d="M173.31,138.28s6.67,7.54,.37,54.19h-33.54c-.23-5.15,3-30.26-1.96-54.52,0,0,5.75-1.15,11.23-1.42,4.29-.21,10.49-.34,14.26,0,4.97,.45,9.64,1.74,9.64,1.74Z"/>
        <path class="cls-11" d="M173.31,138.28s6.67,7.54,.37,54.19h-33.54c-.23-5.15,3-30.26-1.96-54.52,0,0,5.75-1.15,11.23-1.42,4.29-.21,10.49-.34,14.26,0,4.97,.45,9.64,1.74,9.64,1.74Z"/>
      </g>
      <path class="cls-13" d="M176.24,152.54l-.13-.11-6.67-3.56c-.68,10.27,3.91,16.71,6.64,19.52,.38-6.58,.37-11.77,.15-15.85Z"/>
      <polygon class="cls-13" points="164.63 337.45 164.26 344.93 157.04 344.93 157.41 337.45 164.63 337.45"/>
      <polygon class="cls-13" points="115.35 335.66 122.66 336.05 120.37 343.42 113.06 343.04 115.35 335.66"/>
      <path class="cls-17" d="M148.2,115.83c1.61,6.01,2.25,9.61,5.96,12.11,5.58,3.76,12.53-.56,12.74-6.93,.2-5.73-2.47-14.6-8.92-15.81-6.35-1.19-11.39,4.62-9.78,10.63Z"/>
      <path class="cls-22" d="M161.79,192.48s-7.12,47.92-11.02,65.87c-4.28,19.66-27.22,84.7-27.22,84.7l-11.22-2.43s14.38-53,17.97-80.49c1.4-10.72,3.09-28.01,5.23-42.43,2.07-13.96,4.62-25.22,4.62-25.22h21.64Z"/>
      <path class="cls-20" d="M126.24,339.29s-2.09,4.06-2.09,4.06l-12.63-2.73,1.06-3.8,13.66,2.47Z"/>
      <path class="cls-8" d="M126.24,339.29s-2.09,4.06-2.09,4.06l-12.63-2.73,1.06-3.8,13.66,2.47Z"/>
      <path class="cls-10" d="M157.29,209.55c-8.23,1.61-7.36,32.3-6.37,48.08,2.37-11.16,5.85-32.62,8.22-47.86-.55-.27-1.16-.36-1.85-.22Z"/>
      <path class="cls-22" d="M173.68,192.48s3.35,46.88,2.66,66c-.71,19.89-10.14,85.01-10.14,85.01h-10.62s-.39-63.96-.86-83.49c-.52-21.29-3.09-67.52-3.09-67.52h22.04Z"/>
      <path class="cls-20" d="M168.25,339.25s-.6,4.41-.6,4.41h-12.92l-.35-3.94,13.87-.47Z"/>
      <path class="cls-8" d="M168.25,339.25s-.6,4.41-.6,4.41h-12.92l-.35-3.94,13.87-.47Z"/>
      <path class="cls-22" d="M169.4,147.06c0,12.58,6.7,17.76,6.7,17.76l10.88-10.64s-3.7-6.37-8.79-12.23c-6.29-7.23-8.79-2.99-8.79,5.11Z"/>
      <path class="cls-13" d="M166.52,123.29c-.28,.77-1,2.08-2.82,2.6-2.66,.76-2.69,3.01-2.69,3.01l.03,.04c2.53-.84,4.64-2.93,5.48-5.65Z"/>
      <path class="cls-22" d="M163.7,103.88c2.24-2.83-1.21-2.96-1.21-2.96,.9-3.37-3.14-1.56-3.14-1.56-2.42-3.34-3.79,.72-3.79,.72-2.51-2.83-2.97,1.79-2.97,1.79-2.52-3.59-3.8,1.59-3.8,1.59-2.32-3.73-3.74,1.13-3.74,1.13-4.79-1.71-2.51,3.26-2.51,3.26-4.09,.11-.81,3.28-.81,3.28-4.9,.01-.58,2.82-.58,2.82-3.89,2.55,.99,3.24,.99,3.24-3.17,4.96,2.28,3.12,2.28,3.12-2.21,4.91,2.69,2.75,2.69,2.75-.32,4.74,2.42,3.45,3.74,2.57,.25,.95,.73,1.97,1.61,2.08,1.71,.22,2.04-3,2.04-3,0,0,1.59,1.23,2.91,.56,1.33-.67,.83-2.36,.83-2.36,0,0,1.02,.76,1.95,.03,.57-.44,.57-3.63-.15-4.75l2.6-1.02s1.93-.27,1.07-2.82c-.86-2.55-.13-4.56-.13-4.56,2.94-1.38,.53-3.03,.53-3.03,3.4-2.2-.4-2.9-.4-2.9Z"/>
      <path class="cls-17" d="M158.43,116.08c.41,1.58,1.45,2.93,2.53,3.74,1.63,1.21,2.85,.02,2.73-1.83-.1-1.66-1.08-4.3-2.88-4.79-1.77-.49-2.85,1.07-2.39,2.88Z"/>
    </g>
  </g>
</svg>